<?xml version="1.0" encoding="UTF-8" standalone="no"?>
<svg
   version="1.1"
   id="Layer_1"
   x="0px"
   y="0px"
   width="568.5473"
   viewBox="0 0 568.5473 577.4704"
   enable-background="new 0 0 1000 1000"
   xml:space="preserve"
   sodipodi:docname="cumzillaraptor116.svg"
   height="577.4704"
   inkscape:version="1.1.2 (b8e25be833, 2022-02-05)"
   xmlns:inkscape="http://www.inkscape.org/namespaces/inkscape"
   xmlns:sodipodi="http://sodipodi.sourceforge.net/DTD/sodipodi-0.dtd"
   xmlns="http://www.w3.org/2000/svg"
   xmlns:svg="http://www.w3.org/2000/svg"><defs
   id="defs5402" /><sodipodi:namedview
   id="namedview5400"
   pagecolor="#ffffff"
   bordercolor="#666666"
   borderopacity="1.0"
   inkscape:pageshadow="2"
   inkscape:pageopacity="0.0"
   inkscape:pagecheckerboard="0"
   showgrid="false"
   inkscape:zoom="0.745"
   inkscape:cx="861.07383"
   inkscape:cy="440.9396"
   inkscape:window-width="1920"
   inkscape:window-height="991"
   inkscape:window-x="-9"
   inkscape:window-y="-9"
   inkscape:window-maximized="1"
   inkscape:current-layer="Layer_1"
   fit-margin-top="0"
   fit-margin-left="0"
   fit-margin-right="0"
   fit-margin-bottom="0" />



















<g
   id="g6335"
   transform="translate(625.5749,-59.349101)"><path
     fill="#86cd76"
     opacity="1"
     stroke="none"
     d="m -500.6347,371.4683 c 0.0316,-20.50213 0.0632,-41.00421 0.0995,-62.44275 -0.0309,-21.47497 -0.0665,-42.01352 -0.10211,-62.55206 0.0325,-20.50385 0.0649,-41.00766 0.10211,-62.44794 0.0103,-21.46106 0.0158,-41.98571 0.48029,-62.41769 19.91757,0.14288 39.37625,0.2044 58.83493,0.21451 1.13309,6.1e-4 2.26636,-0.41513 3.39954,-0.63709 20.45266,-0.0146 40.90536,-0.0291 62.17263,0.15149 20.85199,0.26825 40.88941,0.34665 60.92688,0.39047 0.63306,0.001 1.26697,-0.35327 1.90046,-0.54196 18.96331,-0.0109 37.92859,0.11945 56.88861,-0.13525 4.5495,-0.0611 5.55829,1.48395 5.5111,5.73697 -0.20819,18.79477 -0.0924,37.59311 -0.56506,56.83209 -20.88281,0.44192 -41.29461,0.44192 -61.7489,0.44192 -0.19934,1.33112 -0.37933,1.97464 -0.38007,2.61832 -0.0215,18.65811 0.0465,37.3168 -0.0951,55.97388 -0.0267,3.52212 1.53144,4.09817 4.53754,4.08319 17.99139,-0.0898 35.98346,-0.0367 53.97534,-0.0615 1.28735,-0.002 2.5744,-0.24262 4.11762,-0.39811 0,-20.93405 0,-41.57263 0,-62.21118 19.30749,-0.004 38.61578,0.0872 57.92169,-0.0906 3.92505,-0.0362 5.13995,1.12619 5.12646,5.09213 -0.13019,38.28161 -0.14239,76.56415 0.0109,114.84561 0.0174,4.33209 -1.54151,5.22534 -5.50885,5.21484 -39.6131,-0.10479 -79.22663,-0.0397 -119.77039,-0.0133 -40.75464,-0.014 -80.57913,2.1e-4 -120.40317,-0.12534 -3.49835,-0.0111 -4.59137,1.077 -4.56317,4.55939 0.14179,17.49515 0.18872,34.99362 -0.025,52.48727 -0.0519,4.25232 1.3967,5.33582 5.44928,5.29035 16.99423,-0.19092 33.99188,-0.0882 50.98828,-0.0684 1.77804,0.002 3.55591,0.16583 5.42959,0.25934 0,21.02697 0,41.56707 0,62.53582 -2.2167,0 -4.02331,0 -5.82992,0 -16.9964,1.3e-4 -33.99429,0.12116 -50.9881,-0.0884 -4.02313,-0.0496 -5.1134,1.25544 -5.03726,5.12488 0.21954,11.15991 0.0784,22.32697 -0.10019,33.72162 -7.92807,6.39441 -16.48807,11.78882 -23.23694,18.90173 -10.25525,10.80854 -14.50345,24.21039 -12.58429,39.38275 1.30851,10.34492 5.88806,19.20887 11.26117,27.82734 -11.14068,0.0434 -22.2847,-0.0542 -33.42026,0.20721 -3.8692,0.0908 -4.74789,-1.37921 -4.71716,-4.95557 0.1485,-17.29376 -0.0436,-34.59082 0.14707,-51.88372 0.0449,-4.0741 -1.09931,-5.47205 -5.31168,-5.42206 -17.45889,0.20721 -34.92304,-0.0285 -52.38211,0.17126 -4.11148,0.0471 -5.42349,-1.13781 -5.37518,-5.32104 0.21896,-18.95551 0.12557,-37.91455 0.61639,-57.31391 19.7316,-0.4115 38.99197,-0.44751 58.25076,-0.28924 3.36737,0.0276 4.19937,-1.22956 4.17539,-4.37097 -0.14844,-19.42469 -0.13703,-38.85071 -0.17871,-58.27625 m 125.13134,-145.91478 c 0,-13.73404 0,-27.46805 0,-41.28205 -21.16485,0 -41.57742,0 -62.33398,0 -0.11289,1.65412 -0.297,3.1095 -0.29862,4.56504 -0.0199,17.63711 0.10471,35.27563 -0.10138,52.91034 -0.0472,4.04385 1.30082,5.05929 5.14814,5.0216 17.63543,-0.17288 35.27352,-0.0686 52.91061,-0.0898 1.45038,-0.002 2.90051,-0.19827 4.67523,-0.328 0,-6.8487 0,-13.32294 0,-20.79712 z"
     id="path5361" /><path
     fill="#dbdcdb"
     opacity="1"
     stroke="none"
     d="m -437.7001,472.58036 c -4.9e-4,-11.16424 0.14068,-22.3313 -0.0789,-33.49121 -0.0761,-3.86944 1.01413,-5.1745 5.03726,-5.12488 16.99381,0.2096 33.9917,0.0886 50.9881,0.0884 1.80661,0 3.61322,0 5.82992,0 0,-20.96875 0,-41.50885 0,-62.53582 -1.87368,-0.0935 -3.65155,-0.25733 -5.42959,-0.25934 -16.9964,-0.0198 -33.99405,-0.1225 -50.98828,0.0684 -4.05258,0.0455 -5.50122,-1.03803 -5.44928,-5.29035 0.21371,-17.49365 0.16678,-34.99212 0.025,-52.48727 -0.0282,-3.48239 1.06482,-4.57044 4.56317,-4.55939 39.82404,0.12555 79.64853,0.11136 119.91452,0.15964 0.46912,20.34802 0.49652,40.67096 0.36365,61.81842 -0.22302,20.95978 -0.29132,41.09509 -0.32178,61.23041 -9.1e-4,0.62018 0.39228,1.24103 0.60169,1.86157 -0.0491,16.76923 -0.0982,33.53851 -0.40216,51.00684 -14.16498,5.41308 -27.77997,4.41961 -35.67206,-12.45746 -0.40808,-0.87262 -1.11481,-1.68476 -1.86359,-2.30713 -14.01782,-11.65131 -29.8374,-17.08936 -48.1167,-13.64166 -14.06823,2.6535 -26.47326,9.45452 -39.001,15.92077 z"
     id="path5363" /><path
     fill="#030702"
     opacity="1"
     stroke="none"
     d="m -437.87915,472.81077 c 12.70679,-6.69666 25.11182,-13.49768 39.18005,-16.15118 18.2793,-3.4477 34.09888,1.99035 48.1167,13.64166 0.74878,0.62237 1.45551,1.43451 1.86359,2.30713 7.89209,16.87707 21.50708,17.87054 35.67267,12.94384 12.85528,-4.19592 23.50134,-11.62805 33.69739,-19.66284 32.58154,-25.67535 59.28723,-56.88049 83.67108,-90.1582 8.3233,-11.35913 15.81335,-23.32886 23.58404,-34.87085 -9.41119,-9.11578 -9.67492,-15.40906 -1.14831,-24.46057 9.51165,-10.0972 21.48083,-16.70844 33.81341,-22.64215 15.64978,-7.52976 31.76343,-13.80634 49.280403,-15.09769 4.69574,-0.34619 9.70947,0.21234 14.19397,1.59683 3.04016,0.9386 6.59027,3.49335 7.88897,6.27118 8.07062,17.26349 13.20746,35.34986 10.13892,54.61109 -3.1709,19.90362 -15.41376,31.89068 -34.77283,36.62988 -2.92151,0.71521 -4.16864,1.86505 -4.66552,4.72742 -6.418403,36.97656 -21.072333,70.63183 -41.972843,101.56805 -35.19269,52.09094 -81.01667,91.66303 -139.95941,114.46985 -15.31513,5.92584 -27.73114,16.11444 -42.21808,23.02545 -17.59497,8.3938 -35.61182,15.00543 -55.32505,15.25299 -33.56518,0.42157 -56.68478,-18.66669 -63.60589,-52.37762 -0.85214,-4.1507 -2.6431,-6.93262 -5.90885,-9.69159 -5.55685,-4.69434 -10.36642,-10.2732 -15.78723,-15.65064 -5.67035,-8.78869 -10.2499,-17.65264 -11.55841,-27.99756 -1.91916,-15.17236 2.32904,-28.57421 12.58429,-39.38275 6.74887,-7.11291 15.30887,-12.50732 23.23694,-18.90173 m -0.36121,11.42175 c -2.46997,1.92664 -4.97384,3.81159 -7.40469,5.78644 -24.54007,19.93598 -24.01727,47.63098 -2.6564,69.75024 7.98193,8.27588 17.38937,14.38172 28.08151,18.5752 26.9202,10.55817 54.73636,2.91034 70.33829,-19.54822 2.7138,-4.27173 5.42755,-8.54339 8.29809,-13.06189 2.93433,1.51398 5.62867,2.90406 8.45636,4.36298 -1.64679,3.29413 -3.03637,6.07367 -4.99518,9.23035 -8.3703,13.3388 -19.33959,23.75946 -34.21188,29.43499 -19.23434,7.34015 -38.14117,4.83924 -57.55444,-3.42895 3.62768,13.05902 9.04031,23.83496 19.27353,31.54761 13.73535,10.35223 29.4588,11.6643 45.68106,8.75103 33.9974,-6.10546 61.89554,-23.46942 85.58438,-47.95477 6.41138,-6.62701 11.71039,-14.33014 17.67877,-21.73645 2.41657,1.39514 4.97852,2.87427 8.3786,4.83728 -5.66455,7.62988 -11.06671,14.90637 -16.46881,22.1828 36.10956,-15.47028 66.83466,-38.71179 93.25385,-67.7063 35.27203,-38.71014 59.82049,-83.01336 69.59912,-135.48895 -24.58771,-1.39459 -45.10541,-9.34259 -59.1709,-30.03644 -0.64063,0.95166 -1.02637,1.48724 -1.37396,2.04657 -23.40503,37.6651 -51.08277,71.90357 -83.14002,102.51209 -18.23309,17.40911 -37.50036,33.53363 -62.68628,41.90191 -8.70184,3.05121 -17.38427,2.92322 -26.54254,-0.65619 -7.10345,-3.17462 -12.21326,-8.46868 -16.14319,-15.06067 -0.83538,-1.40124 -1.72815,-2.91149 -2.96789,-3.90612 -11.38086,-9.1308 -24.17505,-12.87629 -38.68311,-9.85297 -14.54419,3.03101 -27.16571,10.44672 -40.62427,17.51843 m 314.97229,-116.65698 c 7.59327,0.48047 15.24665,1.80872 22.76813,1.27588 19.309693,-1.36798 32.232483,-14.23438 32.923773,-33.46637 0.32837,-9.13629 -1.48108,-18.45978 -3.23444,-27.52191 -1.16968,-6.0452 -3.94909,-11.7789 -6.49762,-19.04831 -6.36297,8.36456 -11.73517,15.42663 -17.349,22.80643 -2.65838,-2.06119 -5.10455,-3.95786 -7.702083,-5.97187 3.971253,-5.57086 7.775513,-10.90747 11.818783,-16.57931 -1.65405,0 -2.67279,-0.16211 -3.62353,0.0236 -25.702523,5.0195 -49.093873,15.15387 -69.408883,31.85284 -2.56152,2.10559 -4.30041,5.21186 -7.4433,9.1294 9.68958,0.88055 11.08863,7.78289 13.61408,13.83264 0.62866,1.5061 1.68793,2.85992 2.68707,4.17944 7.78626,10.28278 18.51721,15.88086 31.44702,19.48755 z"
     id="path5365" /><path
     fill="#d58f38"
     opacity="1"
     stroke="none"
     d="m -501.091,371.42625 c 0.49798,19.46759 0.48657,38.89361 0.63501,58.3183 0.024,3.14141 -0.80802,4.39862 -4.17539,4.37097 -19.25879,-0.15827 -38.51916,-0.12226 -58.23019,-0.18903 -0.45114,-0.0369 -0.46878,-0.007 -0.4646,-0.45678 -0.0349,-20.79151 -0.074,-41.13282 -0.11319,-61.47412 1.44363,-0.21863 2.88699,-0.62525 4.33096,-0.62733 19.18698,-0.0278 38.37403,10e-4 58.0174,0.058 z"
     id="path5367" /><path
     fill="#86cd76"
     opacity="1"
     stroke="none"
     d="m -312.16565,434.05735 c -0.68835,-0.61889 -1.08154,-1.23974 -1.08063,-1.85992 0.0305,-20.13532 0.0988,-40.27063 0.35254,-60.76081 19.15479,-0.33123 38.11945,-0.20227 57.08148,-0.36694 4.10688,-0.0356 5.43903,1.15192 5.38923,5.33771 -0.20758,17.46454 -0.20722,34.93432 2.4e-4,52.39886 0.0496,4.17212 -1.24737,5.37525 -5.37048,5.33234 -18.6294,-0.19409 -37.26197,-0.0836 -56.37238,-0.0812 z"
     id="path5369" /><path
     fill="#d68f38"
     opacity="1"
     stroke="none"
     d="m -501.09338,246.43104 c 0.4917,20.58099 0.52731,41.11954 0.53616,62.1243 -20.61041,0.46625 -41.19403,0.46625 -62.59781,0.46625 0,-20.50361 0,-40.68924 0.18219,-61.43113 0.37351,-0.71304 0.52805,-0.90014 0.64587,-1.11758 20.25916,-0.0281 40.51835,-0.0562 61.23359,-0.0418 z"
     id="path5371" /><path
     fill="#d58f38"
     opacity="1"
     stroke="none"
     d="m -312.81757,120.70237 c -0.63635,0.6716 -1.27026,1.02625 -1.90332,1.02487 -20.03747,-0.0438 -40.07489,-0.12222 -60.45968,-0.41159 -0.34738,-20.64419 -0.34738,-41.072169 -0.34738,-61.880669 20.95398,0 41.46807,0 62.71331,0 0,20.31915 0,40.55181 -0.003,61.267389 z"
     id="path5373" /><path
     fill="#d58f38"
     opacity="1"
     stroke="none"
     d="m -437.81757,120.70231 c -1.13601,0.70493 -2.26928,1.12067 -3.40237,1.12006 -19.45868,-0.0101 -38.91736,-0.0716 -58.82077,-0.21979 -0.44473,-0.098 -0.41382,-0.11838 -0.41382,-0.11838 0,-20.61429 0,-41.228549 0,-62.135099 20.96915,0 41.39853,0 62.63983,0 0,20.34015 0,40.60523 -0.003,61.353209 z"
     id="path5375" /><path
     fill="#d68f38"
     opacity="1"
     stroke="none"
     d="m -500.92511,121.43626 c 0.47058,0.0479 0.43967,0.0684 0.42551,0.0737 -0.0197,20.52991 -0.0253,41.05456 -0.0576,62.04541 -20.46027,0.46625 -40.89377,0.46625 -61.76138,0.46625 -0.18415,-1.76209 -0.45896,-3.17991 -0.46134,-4.59821 -0.0294,-17.63248 0.10654,-35.26654 -0.10833,-52.89645 -0.0534,-4.3798 1.70294,-5.27701 5.60189,-5.24479 18.62925,0.154 37.26026,0.0916 56.36127,0.15412 z"
     id="path5377" /><path
     fill="#85cc76"
     opacity="1"
     stroke="none"
     d="m -563.91455,371.98204 c 0.51434,20.35485 0.55347,40.69616 0.57623,61.49572 -19.32162,0.49658 -38.62732,0.47864 -57.9317,0.62781 -3.28271,0.0253 -4.31151,-1.12952 -4.29123,-4.349 0.11221,-17.80774 0.13516,-35.61725 -0.0132,-53.4245 -0.0306,-3.67151 1.48436,-4.44397 4.76372,-4.42505 18.80647,0.10877 37.61384,0.058 56.89613,0.075 z"
     id="path5379" /><path
     fill="#86cd76"
     opacity="1"
     stroke="none"
     d="m -562.53869,246.49354 c 0.0939,0.19678 -0.0606,0.38388 -0.40162,0.64221 -0.20901,-0.2207 -0.0958,-0.46173 0.40162,-0.64221 z"
     id="path5381" /><path
     fill="#292a29"
     opacity="1"
     stroke="none"
     d="m -250.54584,184.06086 c -0.0335,20.64331 -0.0335,41.28189 -0.0335,62.21594 -1.54322,0.15549 -2.83027,0.39634 -4.11762,0.39811 -17.99188,0.0248 -35.98395,-0.0283 -53.97534,0.0615 -3.0061,0.015 -4.56427,-0.56107 -4.53754,-4.08319 0.1416,-18.65708 0.0735,-37.31577 0.0951,-55.97388 7.4e-4,-0.64368 0.18073,-1.2872 0.38007,-2.61832 20.45429,0 40.86609,0 61.74536,0.0311 0.46753,0.0311 0.47705,-0.036 0.44348,-0.0312 z"
     id="path5383" /><path
     fill="#292a29"
     opacity="1"
     stroke="none"
     d="m -375.50345,226.05351 c 0,6.97424 0,13.44848 0,20.29718 -1.77472,0.12973 -3.22485,0.32623 -4.67523,0.328 -17.63709,0.0212 -35.27518,-0.0831 -52.91061,0.0898 -3.84732,0.0377 -5.19538,-0.97775 -5.14814,-5.0216 0.20609,-17.63471 0.0815,-35.27323 0.10138,-52.91034 0.002,-1.45554 0.18573,-2.91092 0.29862,-4.56504 20.75656,0 41.16913,0 62.33398,0 0,13.814 0,27.54801 0,41.78199 z"
     id="path5385" /><path
     fill="#86cc77"
     opacity="1"
     stroke="none"
     d="m -350.18286,558.96537 c -6.6084,0.14142 -12.93201,-0.17535 -19.21747,0.18103 -4.68677,0.26569 -6.29413,-1.07117 -6.21912,-5.99701 0.28052,-18.42114 0.11213,-36.84906 0.46207,-55.95807 12.17648,-0.84252 24.0029,-1.00146 35.82938,-1.16033 8.66437,3.08227 17.3468,3.21026 26.43078,0.16534 0.34973,19.12372 0.18415,38.24261 0.38434,57.3576 0.0464,4.43451 -1.27038,5.83832 -5.65466,5.58411 -6.13098,-0.35559 -12.29682,-0.10956 -18.91663,-0.15424 0.9206,-2.81286 2.31018,-5.5924 3.95697,-8.88653 -2.82769,-1.45892 -5.52203,-2.849 -8.45636,-4.36298 -2.87054,4.5185 -5.58429,8.79016 -8.5993,13.23108 z"
     id="path5393" /><path
     fill="#dadbda"
     opacity="1"
     stroke="none"
     d="m -339.57495,495.78245 c -11.57953,0.40741 -23.40595,0.56635 -35.58282,0.93189 -20.63044,0.15734 -40.91044,0.10809 -61.75586,-0.37684 -0.6001,-4.34546 -0.63483,-8.25525 -0.66956,-12.16504 12.80139,-7.01165 25.42291,-14.42736 39.9671,-17.45837 14.50806,-3.02332 27.30225,0.72217 38.68311,9.85297 1.23974,0.99463 2.13251,2.50488 2.96789,3.90612 3.92993,6.59199 9.03974,11.88605 16.39014,15.30927 z"
     id="path5395" /><path
     fill="#86cc77"
     opacity="1"
     stroke="none"
     d="m -437.91177,484.20249 c 0.36331,3.87976 0.39804,7.78955 0.54635,12.12647 -0.27472,2.31854 -0.98977,4.20825 -1,6.1018 -0.0889,16.44703 -0.0503,32.89472 -0.0518,49.34223 -6.4e-4,7.23822 -0.003,7.23743 -7.25641,7.2821 -0.6644,0.004 -1.32871,0.0267 -2.45136,0.075 -21.53738,-21.48017 -22.06018,-49.17517 2.47989,-69.11115 2.43085,-1.97485 4.93472,-3.8598 7.73328,-5.81647 z"
     id="path5397" /></g>
</svg>
